<?xml version="1.0" standalone="no"?>
<!DOCTYPE svg PUBLIC "-//W3C//DTD SVG 20010904//EN"
 "http://www.w3.org/TR/2001/REC-SVG-20010904/DTD/svg10.dtd">
<svg version="1.0" xmlns="http://www.w3.org/2000/svg"
 width="200.000000pt" height="200.000000pt" viewBox="0 0 200.000000 200.000000"
 preserveAspectRatio="xMidYMid meet">
<metadata>
Created by potrace 1.11, written by Peter Selinger 2001-2013
</metadata>
<g transform="translate(0.000000,200.000000) scale(0.100000,-0.100000)"
fill="#000000" stroke="none">
<path d="M865 1956 c-99 -16 -197 -47 -290 -94 -94 -46 -144 -82 -226 -159
-199 -188 -303 -429 -303 -703 0 -163 31 -292 102 -435 46 -94 82 -144 160
-226 81 -87 165 -150 262 -199 276 -138 583 -142 858 -10 108 52 161 89 251
174 93 90 149 169 206 288 66 139 88 243 88 408 0 165 -22 269 -88 408 -57
119 -113 198 -206 288 -153 146 -318 227 -529 259 -112 17 -176 18 -285 1z
m545 -166 c44 -44 17 -76 -70 -83 -74 -5 -131 -30 -190 -83 -37 -33 -87 -102
-79 -107 82 -54 129 -116 154 -202 43 -145 -24 -316 -140 -361 -42 -15 -46
-15 -70 0 -17 11 -25 25 -25 46 0 25 7 33 47 52 67 33 87 64 91 147 3 54 0 78
-18 119 -22 51 -74 107 -90 97 -4 -3 -17 -41 -29 -85 -24 -88 -40 -237 -41
-377 0 -68 -3 -93 -12 -93 -7 0 -30 -3 -50 -6 l-38 -7 0 134 c0 187 23 353 65
461 18 47 -194 26 -310 -31 -193 -95 -275 -324 -162 -447 75 -83 233 -44 253
62 8 43 -10 110 -32 118 -9 4 -32 1 -51 -6 -65 -23 -98 35 -48 82 22 20 37 25
79 25 60 -1 106 -28 133 -78 24 -44 24 -170 1 -213 -43 -80 -118 -126 -216
-132 -86 -6 -139 16 -196 79 -60 66 -80 129 -74 228 15 256 277 454 581 438
l97 -5 29 41 c93 134 208 205 334 206 44 1 61 -3 77 -19z m97 -206 c52 -33 58
-61 61 -315 3 -223 4 -237 21 -232 24 6 51 -31 43 -59 -3 -11 -18 -28 -33 -37
-28 -15 -29 -19 -29 -93 0 -70 2 -78 19 -78 10 0 24 7 31 15 18 22 67 19 80
-4 15 -28 13 -36 -16 -70 -52 -62 -156 -61 -194 2 -15 23 -20 50 -20 100 0 72
-4 76 -50 52 -25 -13 -30 -22 -30 -53 -1 -117 -61 -274 -134 -347 -66 -65
-122 -88 -221 -89 -68 -1 -88 3 -130 24 -151 77 -175 315 -43 413 33 24 121
35 143 17 18 -15 20 -61 3 -78 -7 -7 -24 -12 -39 -12 -16 0 -40 -10 -55 -23
-35 -30 -45 -116 -20 -169 43 -91 187 -102 277 -21 58 53 94 131 113 249 5 30
3 32 -26 30 -62 -2 -65 74 -3 100 l35 14 0 278 c1 288 6 329 46 373 35 39 121
46 171 13z m-599 -1230 l45 -26 -5 -62 c-6 -75 -38 -140 -81 -166 -37 -23 -56
-25 -91 -9 -47 22 -45 76 4 86 50 9 65 36 69 124 2 43 6 79 9 79 3 0 25 -12
50 -26z"/>
<path d="M1409 1494 c-11 -13 -15 -71 -17 -271 -4 -276 -5 -268 53 -241 l25
11 0 231 c0 229 -6 273 -36 283 -6 2 -17 -4 -25 -13z"/>
</g>
</svg>
